<svg width="50" height="50" viewBox="0 0 50 50" fill="none" xmlns="http://www.w3.org/2000/svg">
<path fill-rule="evenodd" clip-rule="evenodd" d="M39.43 15.4608L50 15.4648C50.0033 6.97309 44.9345 2.01176 36.2927 2.00851L13.7245 2C5.08289 1.99674 0.0102613 6.95424 0.00703708 15.3389L1.5372e-06 33.6424C-0.00322264 42.0269 5.06558 46.9883 13.7072 46.9917L36.2754 47C44.8814 47.0033 49.9898 42.0459 49.9929 33.6611L49.9933 32.8406L39.4233 32.8366C34.5312 32.8347 30.5333 28.9442 30.535 24.1631C30.5369 19.4178 34.5022 15.4589 39.43 15.4608ZM39.4285 19.1714L48.1418 19.1747C49.1771 19.1751 49.9983 19.996 49.9979 20.995L49.9954 27.3102C49.995 28.3092 49.1376 29.1296 48.1378 29.1291L39.639 29.126C37.1394 29.1608 34.9974 27.4831 34.427 25.1279C34.142 23.6651 34.5352 22.1666 35.5 20.9896C36.4645 19.8839 37.8931 19.2065 39.4285 19.1714ZM39.7831 25.808L40.6045 25.8082C41.6756 25.8086 42.533 24.9883 42.5334 23.9536C42.5338 22.919 41.6771 22.098 40.6058 22.0976L39.7846 22.0973C39.2846 22.0971 38.7847 22.2752 38.4274 22.6319C38.0701 22.9886 37.8557 23.4522 37.8555 23.952C37.8908 24.9509 38.7475 25.8076 39.7831 25.808ZM11.8625 15.4504L25.9676 15.4557C27.0389 15.4561 27.8963 14.6358 27.8967 13.6011C27.8971 12.5664 27.0404 11.7455 25.9691 11.7451L11.8639 11.7397C10.8283 11.7393 9.971 12.5597 9.93489 13.5943C9.93449 14.5934 10.7912 15.4143 11.8625 15.4504Z" fill="#0A0A14"/>
</svg>
