<svg width="50" height="50" viewBox="0 0 50 50" fill="none" xmlns="http://www.w3.org/2000/svg">
<path d="M47.1635 22.2116C46.5536 21.5362 39.9848 16.197 38.8108 15.8519C38.2999 15.7035 37.7862 15.6107 37.2554 15.5718C34.8003 15.392 32.092 16.1616 30.3853 18.001C30.2366 18.1613 30.1515 18.2529 30.1515 18.2529C30.1515 18.2529 30.215 18.1447 30.3263 17.9553C30.8527 17.0678 31.6196 16.2971 32.4407 15.68C32.8192 15.3957 33.22 15.1411 33.6386 14.92C33.7533 14.8594 34.8206 14.2828 34.8924 14.3584C34.8922 14.3582 34.3097 13.7439 34.3097 13.7439C33.373 12.8071 32.3594 11.9995 30.9792 11.9995C29.2684 11.9995 27.8064 13.0602 27.2117 14.5592C26.707 14.1841 25.9042 13.9414 24.9997 13.9414C24.0953 13.9414 23.2925 14.1841 22.7878 14.5592C22.193 13.0601 20.7311 11.9995 19.0203 11.9995C17.64 11.9995 16.6265 12.8071 15.6897 13.7439C15.6897 13.7439 15.1072 14.3581 15.107 14.3583C15.1787 14.2827 16.246 14.8593 16.3609 14.92C16.7794 15.1411 17.1802 15.3956 17.5587 15.68C18.38 16.297 19.1467 17.0678 19.6731 17.9552C19.7844 18.1447 19.8479 18.2529 19.8479 18.2529C19.8479 18.2529 19.763 18.1613 19.6142 18.001C17.9075 16.1615 15.1992 15.392 12.7441 15.5718C12.2133 15.6106 11.6997 15.7035 11.1888 15.8518C10.0146 16.197 3.44587 21.5362 2.83605 22.2115C1.07335 24.1635 -0.000244141 26.7498 -0.000244141 29.587C-0.000244141 35.6669 4.92852 40.5958 11.0085 40.5958C16.5703 40.5958 21.168 36.4709 21.9114 31.1136C22.7781 31.7451 23.8454 32.1179 24.9998 32.1179C26.1543 32.1179 27.2215 31.7451 28.0883 31.1136C28.8317 36.4708 33.4293 40.5958 38.9912 40.5958C45.0711 40.5958 49.9999 35.6669 49.9999 29.587C49.9998 26.7498 48.9262 24.1636 47.1635 22.2116ZM10.7643 36.5014C7.09773 36.5014 4.12537 33.529 4.12537 29.8625C4.12537 26.196 7.09773 23.2236 10.7643 23.2236C14.4309 23.2236 17.4032 26.196 17.4032 29.8625C17.4032 33.529 14.4309 36.5014 10.7643 36.5014ZM24.9997 29.2388C24.0326 29.2388 23.2486 28.4548 23.2486 27.4877C23.2486 26.5206 24.0326 25.7367 24.9997 25.7367C25.9668 25.7367 26.7508 26.5207 26.7508 27.4877C26.7508 28.4548 25.9668 29.2388 24.9997 29.2388ZM39.2352 36.5014C35.5686 36.5014 32.5962 33.529 32.5962 29.8625C32.5962 26.196 35.5686 23.2236 39.2352 23.2236C42.9017 23.2236 45.8741 26.196 45.8741 29.8625C45.8741 33.529 42.9017 36.5014 39.2352 36.5014Z" fill="black"/>
</svg>
