<svg width="50" height="50" viewBox="0 0 50 50" fill="none" xmlns="http://www.w3.org/2000/svg">
<path d="M20.0715 28.5725C20.8215 28.5725 21.4264 29.1775 21.4264 29.9275V48.6425C21.4264 49.3925 20.8215 50 20.0715 50H1.35743C1.17908 50.0003 1.00242 49.9654 0.837578 49.8973C0.672738 49.8292 0.522965 49.7293 0.39685 49.6031C0.270736 49.477 0.170761 49.3272 0.10266 49.1624C0.0345592 48.9975 -0.000327059 48.8209 2.31063e-06 48.6425V29.9275C2.31063e-06 29.1775 0.607472 28.5725 1.35743 28.5725H20.0715ZM48.6401 28.5725C49.39 28.5725 49.9975 29.1775 49.9975 29.9275V48.6425C49.9975 49.3925 49.39 50 48.6401 50H29.926C29.7479 50 29.5715 49.9649 29.4069 49.8966C29.2424 49.8284 29.0929 49.7283 28.967 49.6022C28.8412 49.4762 28.7414 49.3265 28.6735 49.1618C28.6055 48.9971 28.5707 48.8207 28.5711 48.6425V29.9275C28.5711 29.1775 29.176 28.5725 29.926 28.5725H48.6401ZM20.074 0C20.824 0 21.4289 0.6075 21.4289 1.3575V20.0725C21.4289 20.8225 20.824 21.4275 20.074 21.4275H1.35743C0.998286 21.4275 0.653773 21.2852 0.399348 21.0317C0.144924 20.7782 0.00132514 20.4342 2.31063e-06 20.075V1.3575C2.31063e-06 0.6075 0.607472 0 1.35743 0H20.0715H20.074ZM48.6426 0C49.3925 0 50 0.6075 50 1.3575V20.0725C50 20.8225 49.3925 21.4275 48.6426 21.4275H29.9285C29.5692 21.4275 29.2245 21.2847 28.9704 21.0306C28.7163 20.7765 28.5736 20.4319 28.5736 20.0725V1.3575C28.5736 0.6075 29.1785 0 29.9285 0H48.6426Z" fill="black"/>
</svg>
