<svg width="48" height="50" viewBox="0 0 48 50" fill="none" xmlns="http://www.w3.org/2000/svg">
<path d="M42.3317 27.4303C42.4439 26.6252 42.5024 25.8137 42.5068 25.001C42.5068 24.1802 42.4372 23.3572 42.3317 22.5364L47.5479 18.3945C47.7762 18.2002 47.9293 17.9337 47.9808 17.6403C48.0324 17.347 47.9792 17.0451 47.8305 16.7861L42.8949 8.14409C42.7496 7.88954 42.5164 7.69514 42.2379 7.59645C41.9594 7.49775 41.6543 7.50134 41.3783 7.60657L35.2447 10.1067C33.9768 9.10447 32.5777 8.27611 31.0852 7.64407L30.1698 1.03546C30.1115 0.747947 29.957 0.488169 29.7311 0.297929C29.5093 0.111435 29.2292 0.00620723 28.938 0L19.0668 0C18.7672 0.00926344 18.4803 0.121189 18.2551 0.31658C18.03 0.51197 17.8807 0.77865 17.8329 1.07088L16.9154 7.67949C15.427 8.32021 14.0289 9.14866 12.7559 10.1442L6.62226 7.64407C6.3465 7.53867 6.04156 7.53476 5.76312 7.63307C5.48469 7.73137 5.25135 7.92533 5.10571 8.17951L0.17009 16.8215C0.0209417 17.0804 -0.032422 17.3824 0.0191437 17.6758C0.0707094 17.9693 0.223994 18.2359 0.452728 18.4299L5.66888 22.5718C5.56342 23.3572 5.49381 24.1802 5.49381 25.001C5.49381 25.8219 5.56342 26.6449 5.66888 27.4657L0.452728 31.6055C0.224338 31.7998 0.0713044 32.0663 0.019757 32.3597C-0.0317904 32.653 0.0213445 32.9549 0.17009 33.2139L5.10571 41.8559C5.4221 42.3934 6.05698 42.6059 6.62226 42.3934L12.7559 39.8933C14.0236 40.8934 15.3988 41.7142 16.9154 42.3559L17.8308 48.9645C17.9362 49.5354 18.4656 50 19.0647 50H28.9359C29.2356 49.9911 29.5227 49.8793 29.748 49.6839C29.9732 49.4884 30.1224 49.2215 30.1698 48.9291L31.0852 42.3205C32.5736 41.6797 33.9717 40.8513 35.2447 39.8558L41.3783 42.3559C41.9436 42.5705 42.5785 42.3559 42.8949 41.8205L47.8305 33.1785C47.9792 32.9195 48.0324 32.6176 47.9808 32.3243C47.9293 32.0309 47.7762 31.7643 47.5479 31.5701L42.3317 27.4282V27.4303ZM24.0003 32.1451C20.1235 32.1451 16.9491 28.9304 16.9491 25.001C16.9491 21.0717 20.1235 17.857 24.0024 17.857C27.8813 17.857 31.0473 21.0717 31.0473 25.001C31.0473 28.9304 27.875 32.1451 23.9982 32.1451H24.0003Z" fill="black"/>
</svg>
