<svg width="50" height="50" viewBox="0 0 50 50" fill="none" xmlns="http://www.w3.org/2000/svg">
<path d="M24.9999 0C11.056 0.111221 -0.110286 11.3889 0.000822013 25.1666C0.112036 38.8333 11.2782 50 24.9999 50H25.1666C31.833 49.9446 38.1106 47.3335 42.7771 42.5556C47.4436 37.7779 50.0545 31.5002 49.9991 24.8335C49.888 11.1668 38.7219 9.99621e-05 25.0001 9.99621e-05L24.9999 0ZM41.4439 27.6112H36.3329C35.6664 27.6112 35.0552 27.1666 34.833 26.5556L32.2219 19.4443L27.0556 35.8333C26.8335 36.4998 26.2777 36.9444 25.6112 36.9444H25.5001C24.889 36.9444 24.2778 36.5552 24.0558 36L18.1109 22.6666L15.2778 26.8887C14.9999 27.3331 14.5001 27.611 13.9444 27.611H8.33356C7.44462 27.611 6.72271 26.8887 6.72271 26.0002C6.72271 25.1112 7.44502 24.3891 8.33356 24.3891H13.0558L17.0003 18.4445C17.3336 17.9446 17.8893 17.6668 18.5004 17.7222C19.1115 17.7776 19.6114 18.1113 19.8338 18.6666L25.2225 30.8333L30.6105 13.8888C30.8325 13.2223 31.4435 12.7778 32.1104 12.7778C32.8329 12.7778 33.4438 13.1669 33.666 13.8334L37.4434 24.3335H41.4433C42.3322 24.3335 43.054 25.0558 43.054 25.9443C43.0545 26.8333 42.3322 27.6112 41.4437 27.6112H41.4439Z" fill="black"/>
</svg>
