<svg width="60" height="60" viewBox="0 0 60 60" fill="none" xmlns="http://www.w3.org/2000/svg">
<rect width="60" height="60" rx="10" fill="black"/>
<path fill-rule="evenodd" clip-rule="evenodd" d="M35.5848 8.00314C35.5585 8.02407 35.4483 8.1826 35.34 8.35544C34.1809 10.2035 31.1446 14.2854 30.0471 15.4709C29.9888 15.534 29.9628 15.5074 29.3293 14.7344C27.4944 12.4961 25.8344 10.241 24.6973 8.44184C24.3505 7.89321 24.4323 7.84422 21.6201 10.2852C17.9389 13.4806 18.0175 13.3811 18.7943 13.8692C20.0461 14.656 21.3185 15.5415 22.7658 16.633C24.2378 17.7431 26.3927 19.4917 26.3927 19.5759C26.3927 19.7826 19.8237 26.3457 19.6168 26.3457C19.5522 26.3457 19.0061 25.702 17.991 24.4288C16.2956 22.3031 14.9729 20.4583 13.8564 18.6625C13.5352 18.146 13.5051 18.1079 13.4393 18.1332C13.3982 18.149 12.3406 19.2865 11.6033 20.108C8.34411 23.7398 7.92852 24.309 8.34468 24.5712C10.308 25.8087 13.4465 28.1393 15.3168 29.7486C15.5943 29.9873 15.6318 29.925 14.7988 30.6085C12.4815 32.5096 10.1528 34.2179 8.20881 35.443C8.09911 35.5121 8.0052 35.5905 8.00013 35.6171C7.97492 35.7501 11.5317 39.8594 13.1665 41.5863C13.4754 41.9126 13.4487 41.9215 13.7797 41.3797C15.0096 39.3665 16.9262 36.7537 19.0739 34.1624C19.6981 33.4093 19.4147 33.2166 23.0818 36.8867C26.7207 40.5285 26.5394 40.2697 25.851 40.842C23.2842 42.9769 20.795 44.8118 18.7048 46.1103C18.3879 46.307 18.1205 46.4892 18.1106 46.5152C18.0455 46.685 24.1557 52.0684 24.3352 51.9993C24.3598 51.99 24.4753 51.8316 24.5919 51.6471C25.687 49.9167 27.0816 47.988 28.6971 45.97C29.2892 45.2302 29.9263 44.4588 29.9642 44.4353C30.0085 44.4077 30.0369 44.4384 30.574 45.0902C32.3597 47.2576 34.2487 49.8199 35.2943 51.4928C35.3987 51.6597 35.4657 51.7363 35.5071 51.7363C35.7355 51.7363 41.6715 46.5081 41.6139 46.3577C41.6037 46.3315 41.3857 46.1778 41.1295 46.0162C39.0424 44.7007 36.6131 42.9055 34.1875 40.8859C33.501 40.3144 33.5365 40.3709 33.7302 40.1599C35.6287 38.0905 40.1834 33.5732 40.3712 33.5732C40.4022 33.5732 40.6647 33.8643 41.0018 34.2724C43.0313 36.7293 44.829 39.1725 46.0482 41.1308C46.354 41.6222 46.3836 41.6591 46.4421 41.6235C46.5917 41.5332 48.8823 39.0003 50.0707 37.6112C52.0964 35.2436 51.9997 35.5997 50.8288 34.8209C48.8699 33.5179 46.1483 31.4655 44.6432 30.1562C44.3929 29.9386 44.3621 29.9994 44.9886 29.4784C47.1917 27.6467 49.5136 25.9275 51.4784 24.6735C52.0105 24.3337 52.0425 24.3032 51.973 24.1993C51.8458 24.0095 50.5306 22.437 49.63 21.3982C48.6256 20.2397 46.7019 18.1313 46.5942 18.0711C46.5237 18.0315 46.5092 18.05 46.0874 18.7253C45.0233 20.4285 43.6105 22.3974 42.0369 24.3704C41.2596 25.3449 40.4056 26.3772 40.3765 26.3772C40.1891 26.3772 33.5831 19.759 33.5831 19.5712C33.5831 19.4908 35.9862 17.552 37.4608 16.4428C38.7993 15.436 40.6971 14.1416 41.6287 13.6006C41.9218 13.4301 41.926 13.395 41.6805 13.1675C38.863 10.5589 35.7197 7.89576 35.5848 8.00314ZM30.7005 16.3764C31.3659 17.1516 32.5679 18.5089 33.1703 19.1653C33.5702 19.6011 33.5965 19.5184 32.8531 20.158C32.1257 20.7836 30.9839 21.7955 30.4195 22.315C29.9594 22.7383 30.0228 22.7315 29.6573 22.397C29.0551 21.8461 27.6447 20.5965 27.0741 20.1085C26.3665 19.5033 26.3589 19.6658 27.1353 18.8118C27.7866 18.0954 28.9733 16.746 29.6082 15.9993C30.031 15.502 29.9159 15.4623 30.7005 16.3764ZM30.8738 23.5326C31.9236 24.5122 35.3116 27.898 36.2515 28.9068C36.6381 29.3216 37.0175 29.7275 37.0949 29.8088L37.2357 29.9565L36.9558 30.2621C35.4588 31.8957 32.6331 34.7392 30.8119 36.4445C30.3671 36.861 30.0068 37.2115 30.0113 37.2234C30.0301 37.2745 31.8816 38.9301 32.8687 39.7788C33.614 40.4194 33.6118 40.2717 32.8877 41.0678C32.1784 41.8478 31.1752 42.987 30.5215 43.7547C30.0298 44.332 30.006 44.3569 29.9659 44.3322C29.9523 44.3237 29.6483 43.9745 29.2904 43.5565C28.6308 42.7859 27.4289 41.4289 26.8216 40.7694C26.4145 40.3272 26.4134 40.3755 26.8381 40.0148C27.8147 39.1855 29.9722 37.2602 29.9722 37.218C29.9722 37.2069 29.5517 36.8032 29.0381 36.3211C28.5243 35.8389 27.3257 34.6664 26.3747 33.7154C24.8026 32.1438 24.2351 31.5593 23.1155 30.3591L22.7427 29.9595L23.147 29.5284C25.2409 27.2951 27.1952 25.3374 29.5012 23.1629C30.0505 22.6448 29.8703 22.5963 30.8738 23.5326ZM20.1785 27.0763C20.7634 27.7573 21.7292 28.8496 22.3426 29.524C22.7853 30.0104 22.7665 29.9388 22.5211 30.2023C21.9664 30.7984 20.4948 32.4643 19.8832 33.1883C19.595 33.5295 19.6202 33.523 19.3951 33.3164C18.4378 32.438 17.0918 31.2443 16.1645 30.4521C15.5108 29.8935 15.4826 30.0543 16.3687 29.2954C17.1746 28.6051 18.5401 27.3928 19.171 26.8077C19.6545 26.3591 19.5355 26.3273 20.1785 27.0763ZM40.7733 26.775C41.4122 27.3642 42.7768 28.575 43.5775 29.2635C44.006 29.6318 44.3521 29.9504 44.3468 29.9713C44.3414 29.9922 43.9767 30.3191 43.5364 30.6973C42.6938 31.4213 41.7128 32.2904 40.899 33.034C40.307 33.5747 40.4607 33.6106 39.732 32.7621C39.0739 31.9959 38.2699 31.0875 37.6422 30.4009C37.4296 30.1685 37.2595 29.9677 37.2641 29.9549C37.2687 29.9424 37.564 29.6092 37.9203 29.2151C38.6359 28.4234 39.599 27.327 40.0516 26.7886C40.404 26.3692 40.3347 26.3706 40.7733 26.775Z" fill="white"/>
</svg>
