<svg width="20" height="26" viewBox="0 0 20 26" fill="none" xmlns="http://www.w3.org/2000/svg">
<path d="M18.6129 1.29395H4.97112C4.85912 1.29395 4.7675 1.38557 4.7675 1.49755V2.92282C4.7675 3.0348 4.85912 3.12642 4.97112 3.12642H17.5949V20.6368C17.5949 20.7488 17.6865 20.8404 17.7985 20.8404H19.2237C19.3357 20.8404 19.4273 20.7488 19.4273 20.6368V2.10838C19.4273 1.6579 19.0634 1.29395 18.6129 1.29395ZM15.3552 4.55168H2.3242C1.87372 4.55168 1.50977 4.91564 1.50977 5.36612V18.873C1.50977 19.0893 1.5963 19.2955 1.74901 19.4482L6.15968 23.8588C6.21568 23.9148 6.2793 23.9606 6.34802 23.9988V24.0472H6.45492C6.544 24.0804 6.63816 24.0982 6.73488 24.0982H15.3552C15.8056 24.0982 16.1696 23.7342 16.1696 23.2836V5.36612C16.1696 4.91564 15.8056 4.55168 15.3552 4.55168ZM6.34548 21.4562L4.15414 19.2624H6.34548V21.4562ZM14.3371 22.2656H7.97434V18.6516C7.97434 18.0891 7.51876 17.6335 6.9563 17.6335H3.34224V6.38416H14.3371V22.2656Z" fill="#838078"/>
</svg>
