<svg width="55" height="50" viewBox="0 0 55 50" fill="none" xmlns="http://www.w3.org/2000/svg">
<path d="M5.20274 39.6247C5.65996 39.6247 6.09854 39.4431 6.42188 39.1197C6.74521 38.7964 6.92686 38.3579 6.92686 37.9006V22.3834C6.92686 21.4334 7.69932 20.6593 8.65098 20.6593H46.4096C47.3613 20.6593 48.1338 21.4334 48.1338 22.3834V37.9006C48.1338 38.3579 48.3154 38.7964 48.6387 39.1197C48.9621 39.4431 49.4006 39.6247 49.8579 39.6247C50.3152 39.6247 50.7537 39.4431 51.077 39.1197C51.4004 38.7964 51.582 38.3579 51.582 37.9006V22.3834C51.582 19.5316 49.2613 17.2109 46.4096 17.2109H8.65098C5.79932 17.2109 3.47861 19.5316 3.47861 22.3834V37.9006C3.47861 38.3579 3.66025 38.7964 3.98359 39.1197C4.30693 39.4431 4.74541 39.6247 5.20274 39.6247Z" />
<path d="M5.20274 39.6247C5.65996 39.6247 6.09854 39.4431 6.42188 39.1197C6.74521 38.7964 6.92686 38.3579 6.92686 37.9006V22.3834C6.92686 21.4334 7.69932 20.6593 8.65098 20.6593H46.4096C47.3613 20.6593 48.1338 21.4334 48.1338 22.3834V37.9006C48.1338 38.3579 48.3154 38.7964 48.6387 39.1197C48.9621 39.4431 49.4006 39.6247 49.8579 39.6247C50.3152 39.6247 50.7537 39.4431 51.077 39.1197C51.4004 38.7964 51.582 38.3579 51.582 37.9006V22.3834C51.582 19.5316 49.2613 17.2109 46.4096 17.2109H8.65098C5.79932 17.2109 3.47861 19.5316 3.47861 22.3834V37.9006C3.47861 38.3579 3.66025 38.7964 3.98359 39.1197C4.30693 39.4431 4.74541 39.6247 5.20274 39.6247Z" />
<path d="M5.20274 25.8317C5.65996 25.8317 6.09854 25.6501 6.42188 25.3268C6.74521 25.0034 6.92686 24.5648 6.92686 24.1076V8.59038C6.92686 7.64038 7.69932 6.86624 8.65098 6.86624H46.4096C47.3613 6.86624 48.1338 7.64038 48.1338 8.59038V24.1076C48.1338 24.5648 48.3154 25.0034 48.6387 25.3268C48.9621 25.6501 49.4006 25.8317 49.8579 25.8317C50.3152 25.8317 50.7537 25.6501 51.077 25.3268C51.4004 25.0034 51.582 24.5648 51.582 24.1076V8.59038C51.582 5.73866 49.2613 3.41797 46.4096 3.41797H8.65098C5.79932 3.41797 3.47861 5.73866 3.47861 8.59038V24.1076C3.47861 24.5648 3.66025 25.0034 3.98359 25.3268C4.30693 25.6501 4.74541 25.8317 5.20274 25.8317Z" />
<path d="M5.20274 32.7282C5.65996 32.7282 6.09854 32.5466 6.42188 32.2232C6.74521 31.8999 6.92686 31.4614 6.92686 31.0041V15.4869C6.92686 14.5369 7.69932 13.7627 8.65098 13.7627H46.4096C47.3613 13.7627 48.1338 14.5369 48.1338 15.4869V31.0041C48.1338 31.4614 48.3154 31.8999 48.6387 32.2232C48.9621 32.5466 49.4006 32.7282 49.8579 32.7282C50.3152 32.7282 50.7537 32.5466 51.077 32.2232C51.4004 31.8999 51.582 31.4614 51.582 31.0041V15.4869C51.582 12.6352 49.2613 10.3145 46.4096 10.3145H8.65098C5.79932 10.3145 3.47861 12.6352 3.47861 15.4869V31.0041C3.47861 31.4614 3.66025 31.8999 3.98359 32.2232C4.30693 32.5466 4.74541 32.7282 5.20274 32.7282Z" />
<path d="M8.65098 46.5213H46.4096C49.2613 46.5213 51.582 44.2006 51.582 41.3488V29.2799C51.582 26.4281 49.2613 24.1074 46.4096 24.1074H39.5131C36.6613 24.1074 34.3406 26.4281 34.3406 29.2799C34.3406 30.2299 33.5683 31.004 32.6165 31.004H22.4441C21.4924 31.004 20.7199 30.2299 20.7199 29.2799C20.7199 26.4281 18.3993 24.1074 15.5476 24.1074H8.65098C5.79932 24.1074 3.47861 26.4281 3.47861 29.2799V41.3488C3.47861 44.2006 5.79932 46.5213 8.65098 46.5213Z" />
</svg>
