<svg width="50" height="50" viewBox="0 0 50 50" fill="none" xmlns="http://www.w3.org/2000/svg">
<g clip-path="url(#clip0_547_899)">
<circle opacity="0.1" cx="25" cy="25" r="25" fill="#FF0000"/>
<path fill-rule="evenodd" clip-rule="evenodd" d="M31.7413 16.7113C31.3448 17.1026 30.1006 18.3208 28.9764 19.4185C25.2611 23.046 18.1935 29.9534 16.76 31.3582C15.8451 32.255 15.863 32.0776 16.6121 32.8274C17.3674 33.5832 17.1663 33.6184 18.2622 32.54C19.1017 31.7139 21.0361 29.8163 27.9701 23.016C33.0775 18.0073 33.7967 17.2947 33.8055 17.2339C33.8174 17.1516 32.6235 16 32.5263 16C32.4832 16 32.2232 16.2356 31.7413 16.7113ZM24.1877 17.8631C19.76 18.1842 15.6192 20.6613 13.2093 24.4306C12.9243 24.8763 12.9212 24.8173 13.2564 25.3237C14.3837 27.0269 16.7735 29.3647 17.1666 29.149C17.203 29.129 18.0545 28.3002 19.0587 27.3073L20.8845 25.5019L20.8584 25.3189C20.5053 22.8373 22.5185 20.6668 25.1871 20.6526L25.8203 20.6492L26.4224 20.0561C28.5251 17.9852 28.343 18.2018 28.0369 18.1358C26.908 17.8929 25.3245 17.7806 24.1877 17.8631ZM31.7422 20.964C29.469 23.1644 29.1763 23.4521 29.1601 23.5031C29.1506 23.5331 29.1759 23.6726 29.2166 23.8129C30.1234 26.9474 27.0066 29.9706 23.8917 28.9779C23.7624 28.9368 23.6251 28.9031 23.5866 28.9031C23.5006 28.9031 21.2746 31.114 21.2746 31.1994C21.2746 31.2815 21.7966 31.4327 22.6666 31.6029C28.148 32.6745 33.8519 30.181 37.0435 25.3179C37.378 24.8081 37.3772 24.8692 37.0579 24.3811C36.144 22.9848 34.9542 21.7279 33.6063 20.7348C33.1832 20.4232 32.7142 20.1179 32.6582 20.1179C32.6351 20.1179 32.223 20.4987 31.7422 20.964Z" fill="#FF0000"/>
</g>
<defs>
<clipPath id="clip0_547_899">
<rect width="50" height="50" fill="white"/>
</clipPath>
</defs>
</svg>
