<svg width="50" height="50" viewBox="0 0 50 50" fill="none" xmlns="http://www.w3.org/2000/svg">
<g clip-path="url(#clip0_547_883)">
<circle opacity="0.1" cx="25" cy="25" r="25" fill="#3D7CDB"/>
<path fill-rule="evenodd" clip-rule="evenodd" d="M25.8252 16.0509C22.6615 16.9436 21.36 20.7739 23.205 23.7626C23.5498 24.3212 23.5069 24.3834 21.1895 26.6918C18.6847 29.187 18.8937 29.0704 18.1626 28.3789C17.4173 27.6742 17.3886 27.683 16.0448 29.0305C14.7032 30.376 14.6949 30.403 15.3964 31.1449C16.0151 31.7991 16.0126 31.7805 15.5562 32.3268C14.7576 33.2826 15.1349 34.5675 16.2768 34.7817C16.9981 34.917 17.15 34.7912 21.3766 30.5636C23.6074 28.3323 25.5097 26.5067 25.6042 26.5067C25.6986 26.5067 26.1215 26.6709 26.5439 26.8713C30.4544 28.7284 34.2384 26.4581 33.9836 22.4078C33.7324 18.418 29.4 15.0422 25.8252 16.0509ZM28.6968 19.218C31.6957 20.7383 31.9287 24.9439 28.9952 24.5993C26.5284 24.3094 24.4805 21.2296 25.6202 19.5236C26.1681 18.7031 27.4336 18.5775 28.6968 19.218Z" fill="#3D7CDB"/>
</g>
<defs>
<clipPath id="clip0_547_883">
<rect width="50" height="50" fill="white"/>
</clipPath>
</defs>
</svg>
