<svg width="50" height="50" viewBox="0 0 50 50" fill="none" xmlns="http://www.w3.org/2000/svg">
<g clip-path="url(#clip0_547_916)">
<circle opacity="0.1" cx="25" cy="25" r="25" fill="#888888"/>
<path d="M13.8566 31.9861C14.0837 31.9861 14.3016 31.8958 14.4622 31.7352C14.6229 31.5746 14.7131 31.3568 14.7131 31.1296V23.4211C14.7131 22.9492 15.0968 22.5646 15.5696 22.5646H34.327C34.7998 22.5646 35.1835 22.9492 35.1835 23.4211V31.1296C35.1835 31.3568 35.2737 31.5746 35.4343 31.7352C35.595 31.8958 35.8128 31.9861 36.04 31.9861C36.2671 31.9861 36.485 31.8958 36.6456 31.7352C36.8062 31.5746 36.8965 31.3568 36.8965 31.1296V23.4211C36.8965 22.0044 35.7436 20.8516 34.327 20.8516H15.5696C14.153 20.8516 13.0001 22.0044 13.0001 23.4211V31.1296C13.0001 31.3568 13.0903 31.5746 13.251 31.7352C13.4116 31.8958 13.6294 31.9861 13.8566 31.9861Z" fill="#888888"/>
<path d="M13.8566 31.9861C14.0837 31.9861 14.3016 31.8958 14.4622 31.7352C14.6229 31.5746 14.7131 31.3568 14.7131 31.1296V23.4211C14.7131 22.9492 15.0968 22.5646 15.5696 22.5646H34.327C34.7998 22.5646 35.1835 22.9492 35.1835 23.4211V31.1296C35.1835 31.3568 35.2737 31.5746 35.4343 31.7352C35.595 31.8958 35.8128 31.9861 36.04 31.9861C36.2671 31.9861 36.485 31.8958 36.6456 31.7352C36.8062 31.5746 36.8965 31.3568 36.8965 31.1296V23.4211C36.8965 22.0044 35.7436 20.8516 34.327 20.8516H15.5696C14.153 20.8516 13.0001 22.0044 13.0001 23.4211V31.1296C13.0001 31.3568 13.0903 31.5746 13.251 31.7352C13.4116 31.8958 13.6294 31.9861 13.8566 31.9861Z" fill="#888888"/>
<path d="M13.8566 25.1345C14.0837 25.1345 14.3016 25.0443 14.4622 24.8837C14.6229 24.723 14.7131 24.5052 14.7131 24.278V16.5695C14.7131 16.0976 15.0968 15.713 15.5696 15.713H34.327C34.7998 15.713 35.1835 16.0976 35.1835 16.5695V24.278C35.1835 24.5052 35.2737 24.723 35.4343 24.8837C35.595 25.0443 35.8128 25.1345 36.04 25.1345C36.2671 25.1345 36.485 25.0443 36.6456 24.8837C36.8062 24.723 36.8965 24.5052 36.8965 24.278V16.5695C36.8965 15.1529 35.7436 14 34.327 14H15.5696C14.153 14 13.0001 15.1529 13.0001 16.5695V24.278C13.0001 24.5052 13.0903 24.723 13.251 24.8837C13.4116 25.0443 13.6294 25.1345 13.8566 25.1345Z" fill="#888888"/>
<path d="M13.8566 28.5603C14.0837 28.5603 14.3016 28.4701 14.4622 28.3094C14.6229 28.1488 14.7131 27.931 14.7131 27.7038V19.9953C14.7131 19.5234 15.0968 19.1388 15.5696 19.1388H34.327C34.7998 19.1388 35.1835 19.5234 35.1835 19.9953V27.7038C35.1835 27.931 35.2737 28.1488 35.4343 28.3094C35.595 28.4701 35.8128 28.5603 36.04 28.5603C36.2671 28.5603 36.485 28.4701 36.6456 28.3094C36.8062 28.1488 36.8965 27.931 36.8965 27.7038V19.9953C36.8965 18.5786 35.7436 17.4258 34.327 17.4258H15.5696C14.153 17.4258 13.0001 18.5786 13.0001 19.9953V27.7038C13.0001 27.931 13.0903 28.1488 13.251 28.3094C13.4116 28.4701 13.6294 28.5603 13.8566 28.5603Z" fill="#888888"/>
<path d="M15.5696 35.4124H34.327C35.7436 35.4124 36.8965 34.2595 36.8965 32.8429V26.8474C36.8965 25.4307 35.7436 24.2778 34.327 24.2778H30.901C29.4843 24.2778 28.3315 25.4307 28.3315 26.8474C28.3315 27.3193 27.9478 27.7039 27.475 27.7039H22.4216C21.9488 27.7039 21.5651 27.3193 21.5651 26.8474C21.5651 25.4307 20.4123 24.2778 18.9956 24.2778H15.5696C14.153 24.2778 13.0001 25.4307 13.0001 26.8474V32.8429C13.0001 34.2595 14.153 35.4124 15.5696 35.4124Z" fill="#888888"/>
</g>
<defs>
<clipPath id="clip0_547_916">
<rect width="50" height="50" fill="white"/>
</clipPath>
</defs>
</svg>
