<svg width="27" height="27" viewBox="0 0 27 27" fill="none" xmlns="http://www.w3.org/2000/svg">
<g clip-path="url(#clip0_551_857)">
<path fill-rule="evenodd" clip-rule="evenodd" d="M2.78571 5.64307H18.5714C20.1099 5.64307 21.3571 6.89027 21.3571 8.42878V24.2145C21.3571 25.753 20.1099 27.0002 18.5714 27.0002H2.78571C1.2472 27.0002 0 25.753 0 24.2145V8.42878C0 6.89027 1.2472 5.64307 2.78571 5.64307ZM4.95652 9H16.0435C17.124 9 18 9.87596 18 10.9565V22.0435C18 23.124 17.124 24 16.0435 24H4.95652C3.87596 24 3 23.124 3 22.0435V10.9565C3 9.87596 3.87596 9 4.95652 9Z" fill="#838078"/>
<path d="M24.2143 1.79876e-09H7.50007C5.96988 -5.44066e-05 4.72611 1.2342 4.71436 2.76433C4.71436 2.77178 4.71436 2.77826 4.71436 2.78571H19.5715C24.2143 2.78571 24.2143 2.78571 24.2143 7.42855V22.2857C24.2218 22.2857 24.2283 22.2857 24.2357 22.2857C25.7659 22.2739 27.0001 21.0302 27.0001 19.5V2.78571C27.0001 1.2472 25.7528 1.79876e-09 24.2143 1.79876e-09Z" fill="#838078"/>
</g>
<defs>
<clipPath id="clip0_551_857">
<rect width="27" height="27" fill="white"/>
</clipPath>
</defs>
</svg>
