<svg width="50" height="50" viewBox="0 0 50 50" fill="none" xmlns="http://www.w3.org/2000/svg">
<path d="M39.5834 4.1665H10.4167C8.75915 4.1665 7.16943 4.82498 5.99733 5.99709C4.82523 7.16919 4.16675 8.7589 4.16675 10.4165V39.5832C4.16675 41.2408 4.82523 42.8305 5.99733 44.0026C7.16943 45.1747 8.75915 45.8332 10.4167 45.8332H39.5834C41.241 45.8332 42.8307 45.1747 44.0028 44.0026C45.1749 42.8305 45.8334 41.2408 45.8334 39.5832V10.4165C45.8334 8.7589 45.1749 7.16919 44.0028 5.99709C42.8307 4.82498 41.241 4.1665 39.5834 4.1665ZM36.8959 18.104L21.3542 34.6457C21.1582 34.8513 20.9221 35.0147 20.6606 35.1258C20.3991 35.2369 20.1176 35.2933 19.8334 35.2915C19.5493 35.2933 19.2678 35.2369 19.0062 35.1258C18.7447 35.0147 18.5086 34.8513 18.3126 34.6457L13.1459 29.1665C12.935 28.9731 12.7661 28.7384 12.6499 28.4768C12.5336 28.2153 12.4725 27.9327 12.4704 27.6465C12.4682 27.3603 12.525 27.0768 12.6373 26.8135C12.7496 26.5503 12.9149 26.313 13.1229 26.1164C13.3309 25.9199 13.5772 25.7683 13.8464 25.6712C14.1156 25.574 14.4019 25.5333 14.6875 25.5517C14.9731 25.5701 15.2518 25.6471 15.5063 25.778C15.7608 25.9089 15.9856 26.0908 16.1667 26.3123L19.8334 30.2082L33.8543 15.2915C34.0479 15.0962 34.2783 14.9412 34.5322 14.8355C34.7861 14.7297 35.0584 14.6753 35.3334 14.6753C35.6084 14.6753 35.8807 14.7297 36.1346 14.8355C36.3885 14.9412 36.6189 15.0962 36.8126 15.2915C37.1755 15.665 37.3854 16.161 37.4008 16.6816C37.4162 17.2021 37.2361 17.7096 36.8959 18.104V18.104Z" fill="black"/>
</svg>
