<svg width="50" height="50" viewBox="0 0 50 50" fill="none" xmlns="http://www.w3.org/2000/svg">
<path fill-rule="evenodd" clip-rule="evenodd" d="M5.99733 5.99709C7.16943 4.82498 8.75915 4.1665 10.4167 4.1665H39.5834C41.241 4.1665 42.8307 4.82498 44.0028 5.99709C45.1749 7.16919 45.8334 8.7589 45.8334 10.4165V39.5832C45.8334 41.2408 45.1749 42.8305 44.0028 44.0026C42.8307 45.1747 41.241 45.8332 39.5834 45.8332H10.4167C8.75915 45.8332 7.16943 45.1747 5.99733 44.0026C4.82523 42.8305 4.16675 41.2408 4.16675 39.5832V10.4165C4.16675 8.7589 4.82523 7.16919 5.99733 5.99709ZM8.58185 8.58161C9.59454 7.56892 10.968 7 12.4002 7H37.6C39.0321 7 40.4056 7.56892 41.4183 8.58161C42.431 9.5943 42.9999 10.9678 42.9999 12.4V37.5997C42.9999 39.0319 42.431 40.4054 41.4183 41.4181C40.4056 42.4308 39.0321 42.9997 37.6 42.9997H12.4002C10.968 42.9997 9.59454 42.4308 8.58185 41.4181C7.56917 40.4054 7.00024 39.0319 7.00024 37.5997V12.4C7.00024 10.9678 7.56917 9.5943 8.58185 8.58161Z" fill="black"/>
</svg>
